<?xml version="1.0" encoding="utf-8"?>
<!-- Generator: Adobe Illustrator 23.0.4, SVG Export Plug-In . SVG Version: 6.00 Build 0)  -->
<svg version="1.1" id="Layer_1" xmlns="http://www.w3.org/2000/svg" xmlns:xlink="http://www.w3.org/1999/xlink" x="0px" y="0px"
	 viewBox="0 0 25 25" style="enable-background:new 0 0 25 25;" xml:space="preserve">
<style type="text/css">
	.st0{fill:#39464E;}
</style>
<title>Budicon-Outline/Kitchen/apron</title>
<desc>Created with Sketch.</desc>
<g id="Page-concepts">
	<g id="Winter-Recipes-Desktop" transform="translate(-1046.000000, -976.000000)">
		<g transform="translate(1046.000000, 976.000000)">
			<path id="Shape" class="st0" d="M12.5,0C5.6,0,0,5.6,0,12.5S5.6,25,12.5,25S25,19.4,25,12.5c0-3.3-1.3-6.5-3.7-8.8S15.8,0,12.5,0
				z M12.5,24C6.1,24,1,18.9,1,12.5S6.1,1,12.5,1S24,6.1,24,12.5C24,18.8,18.8,24,12.5,24z M16.9,16.1c0.2,0.2,0.2,0.5,0,0.7
				c-0.2,0.2-0.5,0.2-0.7,0l-4-4l0,0c-0.1-0.1-0.1-0.2-0.1-0.3l0-6C12,6.2,12.2,6,12.5,6S13,6.2,13,6.5v5.8L16.9,16.1z"/>
		</g>
	</g>
</g>
</svg>
