<?xml version="1.0" encoding="utf-8"?>
<!-- Generator: Adobe Illustrator 23.0.4, SVG Export Plug-In . SVG Version: 6.00 Build 0)  -->
<svg version="1.1" id="Layer_1" xmlns="http://www.w3.org/2000/svg" xmlns:xlink="http://www.w3.org/1999/xlink" x="0px" y="0px"
	 viewBox="0 0 25 25" style="enable-background:new 0 0 25 25;" xml:space="preserve">
<style type="text/css">
	.st0{fill:#39464E;}
	.st1{filter:url(#Adobe_OpacityMaskFilter);}
	.st2{fill-rule:evenodd;clip-rule:evenodd;fill:#FFFFFF;}
	.st3{mask:url(#mask-2_1_);}
	.st4{fill-rule:evenodd;clip-rule:evenodd;fill:#39464E;}
</style>
<title>Budicon-Outline/Kitchen/apron Copy</title>
<desc>Created with Sketch.</desc>
<g id="Page-concepts">
	<g id="Winter-Recipes-Desktop" transform="translate(-1178.000000, -976.000000)">
		<g transform="translate(1178.000000, 976.000000)">
			<g>
				<g id="Mask">
					<path class="st0" d="M25,13H0c0.1,4.8,3,9.2,7.5,11h-2C5.2,24,5,24.2,5,24.5S5.2,25,5.5,25h14c0.3,0,0.5-0.2,0.5-0.5
						S19.8,24,19.5,24h-2C22,22.2,24.9,17.8,25,13z M12.5,24c-4.7,0-8.9-2.7-10.7-7h15.7c0.3,0,0.5-0.2,0.5-0.5S17.8,16,17.5,16h-16
						c0,0,0,0-0.1,0c-0.2-0.7-0.3-1.3-0.4-2H24C23.3,19.8,18.3,24.1,12.5,24L12.5,24z M9,7.8c0-0.6-0.3-1.1-0.8-1.5
						C7.5,5.9,7,5,7,4.2C7,3.3,7.5,2.5,8.2,2C8.7,1.6,9,1.1,9,0.5C9,0.2,9.2,0,9.5,0S10,0.2,10,0.5c0,0.9-0.5,1.7-1.2,2.2
						C8.3,3,8,3.6,8,4.2c0,0.6,0.3,1.1,0.8,1.5C9.5,6.1,10,7,10,7.8c0,0.9-0.5,1.7-1.2,2.2C8.3,10.4,8,10.9,8,11.5
						C8,11.8,7.8,12,7.5,12S7,11.8,7,11.5c0-0.9,0.5-1.7,1.2-2.2C8.7,9,9,8.4,9,7.8z M13.5,7.8c0-0.6-0.3-1.1-0.8-1.5
						C12,5.9,11.5,5,11.5,4.2c0-0.9,0.5-1.7,1.2-2.2c0.5-0.3,0.8-0.9,0.8-1.5C13.5,0.2,13.7,0,14,0s0.5,0.2,0.5,0.5
						c0,0.9-0.5,1.7-1.2,2.2c-0.5,0.3-0.8,0.9-0.8,1.5c0,0.6,0.3,1.1,0.8,1.5C14,6.1,14.5,7,14.5,7.8c0,0.9-0.5,1.7-1.2,2.2
						c-0.5,0.3-0.8,0.9-0.8,1.5c0,0.3-0.2,0.5-0.5,0.5s-0.5-0.2-0.5-0.5c0-0.9,0.5-1.7,1.2-2.2C13.2,9,13.5,8.4,13.5,7.8z M18,7.8
						c0-0.6-0.3-1.1-0.8-1.5C16.5,5.9,16,5,16,4.2c0-0.9,0.5-1.7,1.2-2.2C17.7,1.6,18,1.1,18,0.5C18,0.2,18.2,0,18.5,0
						S19,0.2,19,0.5c0,0.9-0.5,1.7-1.2,2.2C17.3,3,17,3.6,17,4.2c0,0.6,0.3,1.1,0.8,1.5C18.5,6.1,19,7,19,7.8c0,0.9-0.5,1.7-1.2,2.2
						c-0.5,0.3-0.8,0.9-0.8,1.5c0,0.3-0.2,0.5-0.5,0.5S16,11.8,16,11.5c0-0.9,0.5-1.7,1.2-2.2C17.7,9,18,8.4,18,7.8z"/>
				</g>
				<defs>
					<filter id="Adobe_OpacityMaskFilter" filterUnits="userSpaceOnUse" x="0" y="0" width="25" height="25">
						<feColorMatrix  type="matrix" values="1 0 0 0 0  0 1 0 0 0  0 0 1 0 0  0 0 0 1 0"/>
					</filter>
				</defs>
				<mask maskUnits="userSpaceOnUse" x="0" y="0" width="25" height="25" id="mask-2_1_">
					<g class="st1">
						<path id="path-1_1_" class="st2" d="M25,13H0c0.1,4.8,3,9.2,7.5,11h-2C5.2,24,5,24.2,5,24.5S5.2,25,5.5,25h14
							c0.3,0,0.5-0.2,0.5-0.5S19.8,24,19.5,24h-2C22,22.2,24.9,17.8,25,13z M12.5,24c-4.7,0-8.9-2.7-10.7-7h15.7
							c0.3,0,0.5-0.2,0.5-0.5S17.8,16,17.5,16h-16c0,0,0,0-0.1,0c-0.2-0.7-0.3-1.3-0.4-2H24C23.3,19.8,18.3,24.1,12.5,24L12.5,24z
							 M9,7.8c0-0.6-0.3-1.1-0.8-1.5C7.5,5.9,7,5,7,4.2C7,3.3,7.5,2.5,8.2,2C8.7,1.6,9,1.1,9,0.5C9,0.2,9.2,0,9.5,0S10,0.2,10,0.5
							c0,0.9-0.5,1.7-1.2,2.2C8.3,3,8,3.6,8,4.2c0,0.6,0.3,1.1,0.8,1.5C9.5,6.1,10,7,10,7.8c0,0.9-0.5,1.7-1.2,2.2
							C8.3,10.4,8,10.9,8,11.5C8,11.8,7.8,12,7.5,12S7,11.8,7,11.5c0-0.9,0.5-1.7,1.2-2.2C8.7,9,9,8.4,9,7.8z M13.5,7.8
							c0-0.6-0.3-1.1-0.8-1.5C12,5.9,11.5,5,11.5,4.2c0-0.9,0.5-1.7,1.2-2.2c0.5-0.3,0.8-0.9,0.8-1.5C13.5,0.2,13.7,0,14,0
							s0.5,0.2,0.5,0.5c0,0.9-0.5,1.7-1.2,2.2c-0.5,0.3-0.8,0.9-0.8,1.5c0,0.6,0.3,1.1,0.8,1.5C14,6.1,14.5,7,14.5,7.8
							c0,0.9-0.5,1.7-1.2,2.2c-0.5,0.3-0.8,0.9-0.8,1.5c0,0.3-0.2,0.5-0.5,0.5s-0.5-0.2-0.5-0.5c0-0.9,0.5-1.7,1.2-2.2
							C13.2,9,13.5,8.4,13.5,7.8z M18,7.8c0-0.6-0.3-1.1-0.8-1.5C16.5,5.9,16,5,16,4.2c0-0.9,0.5-1.7,1.2-2.2
							C17.7,1.6,18,1.1,18,0.5C18,0.2,18.2,0,18.5,0S19,0.2,19,0.5c0,0.9-0.5,1.7-1.2,2.2C17.3,3,17,3.6,17,4.2
							c0,0.6,0.3,1.1,0.8,1.5C18.5,6.1,19,7,19,7.8c0,0.9-0.5,1.7-1.2,2.2c-0.5,0.3-0.8,0.9-0.8,1.5c0,0.3-0.2,0.5-0.5,0.5
							S16,11.8,16,11.5c0-0.9,0.5-1.7,1.2-2.2C17.7,9,18,8.4,18,7.8z"/>
					</g>
				</mask>
				<g id="Rectangle-7" class="st3">
					<rect class="st4" width="25" height="25"/>
				</g>
			</g>
		</g>
	</g>
</g>
</svg>
